<?xml version="1.0" standalone="no"?>
<!DOCTYPE svg PUBLIC "-//W3C//DTD SVG 20010904//EN"
 "http://www.w3.org/TR/2001/REC-SVG-20010904/DTD/svg10.dtd">
<svg version="1.0" xmlns="http://www.w3.org/2000/svg"
 width="300.000000pt" height="303.000000pt" viewBox="0 0 300.000000 303.000000"
 preserveAspectRatio="xMidYMid meet">

<g transform="translate(0.000000,303.000000) scale(0.100000,-0.100000)"
fill="#000000" stroke="none">
<path d="M288 2896 c-62 -17 -111 -56 -137 -109 l-21 -44 2 -1241 3 -1240 30
-43 c18 -26 50 -53 80 -68 l49 -26 1221 0 1220 0 47 22 c58 26 103 86 118 156
8 37 10 395 8 1242 l-3 1190 -21 46 c-42 89 -148 140 -243 115 -115 -30 -160
-98 -161 -243 l0 -93 -960 0 -960 0 0 71 c0 38 -5 90 -11 114 -28 109 -150
180 -261 151z m128 -96 c21 -14 39 -36 50 -66 16 -42 17 -120 12 -1125 -3
-594 -8 -1082 -10 -1085 -3 -2 -21 3 -41 11 -51 21 -135 19 -180 -4 l-37 -19
2 1118 3 1118 25 27 c14 15 34 31 45 35 37 16 97 11 131 -10z m2365 -19 l39
-39 0 -1115 0 -1115 -37 19 c-45 23 -129 25 -180 4 -19 -8 -37 -15 -39 -15 -2
0 -3 501 -2 1114 l3 1114 25 27 c32 34 54 44 109 44 37 1 49 -4 82 -38z m-317
-307 c14 -6 16 -109 16 -1070 l0 -1064 39 0 c36 0 39 2 45 33 10 54 56 89 121
95 53 4 56 3 95 -36 36 -36 40 -44 40 -92 0 -48 -4 -56 -39 -91 l-39 -39
-1231 2 -1231 3 -32 33 c-30 29 -33 38 -33 92 0 54 3 63 32 91 26 26 42 33 86
37 49 4 57 2 90 -28 20 -18 41 -46 45 -64 8 -28 12 -31 48 -31 l39 0 2 1055
c2 580 5 1061 8 1068 3 9 201 12 944 12 517 0 946 -3 955 -6z"/>
<path d="M650 1335 l0 -865 865 0 865 0 0 865 0 865 -126 0 -125 0 3 -37 3
-38 83 -3 82 -3 0 -369 0 -370 -300 0 -300 0 0 -40 0 -40 300 0 300 0 0 -375
0 -375 -390 0 -390 0 -5 23 c-4 13 -5 72 -3 130 l3 107 -42 0 -43 0 0 -130 0
-130 -350 0 -350 0 0 375 0 375 350 0 349 0 3 -152 3 -153 38 -3 37 -3 0 345
0 346 -40 0 -40 0 0 -150 0 -150 -350 0 -350 0 0 370 0 370 350 0 349 0 3
-127 3 -128 37 -3 37 -3 3 128 3 128 173 3 172 2 0 40 0 40 -605 0 -605 0 0
-865z"/>
</g>
</svg>
